<svg style="display: none">
	<symbol id="down" xmlns="http://www.w3.org/2000/svg" viewBox="0 0 451.846 451.847">
		<path d="M225.923,354.706c-8.098,0-16.195-3.092-22.369-9.263L9.27,151.157c-12.359-12.359-12.359-32.397,0-44.751 c12.354-12.354,32.388-12.354,44.748,0l171.905,171.915l171.906-171.909c12.359-12.354,32.391-12.354,44.744,0 c12.365,12.354,12.365,32.392,0,44.751L248.292,345.449C242.115,351.621,234.018,354.706,225.923,354.706z"/>
	</symbol>
	<symbol id="up" xmlns="http://www.w3.org/2000/svg" viewBox="0 0 512 512">
		<path d="M281.3,120.6l220.1,220.2c14,14,14,36.7,0,50.7c-14,14-36.7,14-50.7,0L256,196.6L61.2,391.4 c-14,14-36.7,14-50.7,0c-14-14-14-36.7,0-50.7l220.1-220.2c7-7,16.2-10.5,25.3-10.5C265.2,110.1,274.3,113.6,281.3,120.6z"/>
	</symbol>
	<symbol id="dots" xmlns="http://www.w3.org/2000/svg" viewBox="0 0 192 512">
		<path fill="currentColor" d="M96 184c39.8 0 72 32.2 72 72s-32.2 72-72 72-72-32.2-72-72 32.2-72 72-72zM24 80c0 39.8 32.2 72 72 72s72-32.2 72-72S135.8 8 96 8 24 40.2 24 80zm0 352c0 39.8 32.2 72 72 72s72-32.2 72-72-32.2-72-72-72-72 32.2-72 72z" class=""></path>
	</symbol>
	<symbol id="arrow-left" xmlns="http://www.w3.org/2000/svg" viewBox="0 0 477.175 477.175">
		<path d="M145.188,238.575l215.5-215.5c5.3-5.3,5.3-13.8,0-19.1s-13.8-5.3-19.1,0l-225.1,225.1c-5.3,5.3-5.3,13.8,0,19.1l225.1,225c2.6,2.6,6.1,4,9.5,4s6.9-1.3,9.5-4c5.3-5.3,5.3-13.8,0-19.1L145.188,238.575z"/>
	</symbol>
	<symbol id="arrow-right" xmlns="http://www.w3.org/2000/svg" viewBox="0 0 129 129">
		<path d="m40.4,121.3c-0.8,0.8-1.8,1.2-2.9,1.2s-2.1-0.4-2.9-1.2c-1.6-1.6-1.6-4.2 0-5.8l51-51-51-51c-1.6-1.6-1.6-4.2 0-5.8 1.6-1.6 4.2-1.6 5.8,0l53.9,53.9c1.6,1.6 1.6,4.2 0,5.8l-53.9,53.9z"/>
	</symbol>
	<symbol id="calendar" xmlns="http://www.w3.org/2000/svg" viewBox="0 0 36.447 36.447">
		<g>
			<path d="M30.224,3.948h-1.098V2.75c0-1.517-1.197-2.75-2.67-2.75c-1.474,0-2.67,1.233-2.67,2.75v1.197h-2.74V2.75    c0-1.517-1.197-2.75-2.67-2.75c-1.473,0-2.67,1.233-2.67,2.75v1.197h-2.74V2.75c0-1.517-1.197-2.75-2.67-2.75    c-1.473,0-2.67,1.233-2.67,2.75v1.197H6.224c-2.343,0-4.25,1.907-4.25,4.25v24c0,2.343,1.907,4.25,4.25,4.25h24    c2.344,0,4.25-1.907,4.25-4.25v-24C34.474,5.855,32.567,3.948,30.224,3.948z M25.286,2.75c0-0.689,0.525-1.25,1.17-1.25    c0.646,0,1.17,0.561,1.17,1.25v4.896c0,0.689-0.524,1.25-1.17,1.25c-0.645,0-1.17-0.561-1.17-1.25V2.75z M17.206,2.75    c0-0.689,0.525-1.25,1.17-1.25s1.17,0.561,1.17,1.25v4.896c0,0.689-0.525,1.25-1.17,1.25s-1.17-0.561-1.17-1.25V2.75z M9.125,2.75    c0-0.689,0.525-1.25,1.17-1.25s1.17,0.561,1.17,1.25v4.896c0,0.689-0.525,1.25-1.17,1.25s-1.17-0.561-1.17-1.25V2.75z     M31.974,32.198c0,0.965-0.785,1.75-1.75,1.75h-24c-0.965,0-1.75-0.785-1.75-1.75v-22h27.5V32.198z"/>
			<rect x="6.724" y="14.626" width="4.595" height="4.089"/>
			<rect x="12.857" y="14.626" width="4.596" height="4.089"/>
			<rect x="18.995" y="14.626" width="4.595" height="4.089"/>
			<rect x="25.128" y="14.626" width="4.596" height="4.089"/>
			<rect x="6.724" y="20.084" width="4.595" height="4.086"/>
			<rect x="12.857" y="20.084" width="4.596" height="4.086"/>
			<rect x="18.995" y="20.084" width="4.595" height="4.086"/>
			<rect x="25.128" y="20.084" width="4.596" height="4.086"/>
			<rect x="6.724" y="25.54" width="4.595" height="4.086"/>
			<rect x="12.857" y="25.54" width="4.596" height="4.086"/>
			<rect x="18.995" y="25.54" width="4.595" height="4.086"/>
			<rect x="25.128" y="25.54" width="4.596" height="4.086"/>
		</g>
	</symbol>
</svg>
