<svg style="display: none">
	<symbol id="down" xmlns="http://www.w3.org/2000/svg" viewBox="0 0 451.846 451.847">
		<path d="M225.923,354.706c-8.098,0-16.195-3.092-22.369-9.263L9.27,151.157c-12.359-12.359-12.359-32.397,0-44.751 c12.354-12.354,32.388-12.354,44.748,0l171.905,171.915l171.906-171.909c12.359-12.354,32.391-12.354,44.744,0 c12.365,12.354,12.365,32.392,0,44.751L248.292,345.449C242.115,351.621,234.018,354.706,225.923,354.706z"/>
	</symbol>
	<symbol id="up" xmlns="http://www.w3.org/2000/svg" viewBox="0 0 512 512">
		<path d="M281.3,120.6l220.1,220.2c14,14,14,36.7,0,50.7c-14,14-36.7,14-50.7,0L256,196.6L61.2,391.4 c-14,14-36.7,14-50.7,0c-14-14-14-36.7,0-50.7l220.1-220.2c7-7,16.2-10.5,25.3-10.5C265.2,110.1,274.3,113.6,281.3,120.6z"/>
	</symbol>
</svg>
